<svg width="224.5" height="171" viewBox="0 0 224.5 171" xmlns="http://www.w3.org/2000/svg">
  <rect width="224.5" height="171" fill="#000"/>
  <path style="fill:#fff" d="M13.122 165.668c-2.86-1.012-6.319-4.554-7.321-7.496-1.222-3.587-1.222-139.757 0-143.344 1.045-3.069 4.458-6.482 7.527-7.527 3.567-1.216 87.777-1.216 91.344 0 3.112 1.06 6.508 4.479 7.543 7.593 1.365 4.109.94 141.539-.446 144.335-1.392 2.806-4.417 5.557-7.126 6.48-1.116.38-10.909.632-23.708.758-26.4.26-65.592-.013-67.813-.8M96 134.808c0-10.368 1.683-9.246-13.86-9.235-17.058.012-17.32-.247-17.516-17.323-.42-36.606-2.237-32.722 15.376-32.869 15.75-.131 15.75-.131 15.75-8.881s0-8.75-15.668-9-15.667-.25-15.621-9.5c.058-11.705 1.339-10.547-11.497-10.385-10.714.135-10.714.135-10.85 10.001s-.135 9.866-12.25 10c-19.166.212-19.156 17.556.011 17.768C42 75.518 42 75.518 42 98.134c0 22.683.142 24.964 1.902 30.645 1.883 6.079 7.14 11.241 13.348 13.11 18.674 5.62 38.75 1.951 38.75-7.08m27.151 30.87c-2.523-.894-5.576-3.74-6.92-6.45-1.386-2.795-1.81-140.225-.446-144.334 1.035-3.114 4.43-6.533 7.543-7.593 3.565-1.215 85.279-1.215 88.844 0 3.069 1.045 6.482 4.458 7.527 7.527 1.222 3.587 1.222 139.757 0 143.344-1.045 3.069-4.458 6.482-7.527 7.527-3.417 1.165-85.729 1.145-89.02-.021M178.5 144.77c18.113-3.518 27.911-14.587 25.553-28.867-2.038-12.341-9.613-17.47-33.053-22.377-14.316-2.997-17.994-5.128-17.998-10.427-.01-11.87 23.227-11.758 27.768.133.834 2.183 20.626 3.538 22.616 1.548 1.127-1.127-3.514-12.633-6.754-16.745-14.529-18.44-53.717-16.465-63.782 3.214-6.647 12.997-1.651 27.31 11.65 33.374 3.035 1.384 6.988 2.867 8.903 3.34 1.016.25 3.31.822 5.097 1.27 3.252.814 5.78 1.403 10 2.33 11.657 2.563 15.418 6.2 11.863 11.476-1.814 2.692-4.81 3.532-12.674 3.554-9.702.027-13.81-2.126-16.636-8.72-1.155-2.694-3.292-2.939-16.281-1.863-7.627.632-7.554.492-4.628 8.874 5.35 15.32 26.687 24.095 48.356 19.886"/>
</svg>